<?xml version="1.0" encoding="UTF-8"?>
<!DOCTYPE svg PUBLIC "-//W3C//DTD SVG 1.1//EN" "http://www.w3.org/Graphics/SVG/1.1/DTD/svg11.dtd">
<!-- Creator: CorelDRAW X8 -->
<svg xmlns="http://www.w3.org/2000/svg" xml:space="preserve" width="297mm" height="210mm" version="1.1" style="shape-rendering:geometricPrecision; text-rendering:geometricPrecision; image-rendering:optimizeQuality; fill-rule:evenodd; clip-rule:evenodd"
viewBox="0 0 29700 21000"
 xmlns:xlink="http://www.w3.org/1999/xlink">
 <defs>
  <style type="text/css">
   <![CDATA[
    .str5 {stroke:#00C900;stroke-width:100}
    .str7 {stroke:#00C946;stroke-width:100}
    .str1 {stroke:#00C9BC;stroke-width:100}
    .str8 {stroke:#00C9BC;stroke-width:75}
    .str0 {stroke:#373435;stroke-width:20}
    .str2 {stroke:#E11A48;stroke-width:20}
    .str4 {stroke:#E51754;stroke-width:20}
    .str3 {stroke:#ED1356;stroke-width:20}
    .str6 {stroke:#FFE500;stroke-width:20}
    .fil5 {fill:none}
    .fil4 {fill:#E6E7E8}
    .fil6 {fill:#96989A}
    .fil2 {fill:#848688}
    .fil7 {fill:#606062}
    .fil0 {fill:#373435}
    .fil3 {fill:#ED3237}
    .fil1 {fill:#DE3439}
    .fil8 {fill:#00C9BC;fill-rule:nonzero}
   ]]>
  </style>
    <clipPath id="id0">
     <path d="M11931 14118l9966 -1600 0 7914 -9966 1601 0 -7915z"/>
    </clipPath>
   <mask id="id1">
  <linearGradient id="id2" gradientUnits="userSpaceOnUse" x1="-4446.84" y1="20888.9" x2="-4658.5" y2="20888.9">
   <stop offset="0" style="stop-opacity:1; stop-color:white"/>
   <stop offset="1" style="stop-opacity:0; stop-color:white"/>
  </linearGradient>
    <rect style="fill:url(#id2)" x="12865" y="14882" width="7922" height="6088"/>
   </mask>
    <clipPath id="id3">
     <path d="M6198 9075l3965 -637 0 12345 -3965 637 0 -12345z"/>
    </clipPath>
   <mask id="id4">
  <linearGradient id="id5" gradientUnits="userSpaceOnUse" x1="-4446.84" y1="20888.9" x2="-4658.5" y2="20888.9">
   <stop offset="0" style="stop-opacity:1; stop-color:white"/>
   <stop offset="1" style="stop-opacity:0; stop-color:white"/>
  </linearGradient>
    <rect style="fill:url(#id5)" x="6656" y="9449" width="2983" height="11450"/>
   </mask>
    <clipPath id="id6">
     <path d="M549 4074l4621 -742 0 17150 -4621 742 0 -17150z"/>
    </clipPath>
   <mask id="id7">
  <linearGradient id="id8" gradientUnits="userSpaceOnUse" x1="-4446.84" y1="20888.9" x2="-4658.5" y2="20888.9">
   <stop offset="0" style="stop-opacity:1; stop-color:white"/>
   <stop offset="1" style="stop-opacity:0; stop-color:white"/>
  </linearGradient>
    <rect style="fill:url(#id8)" x="1082" y="4510" width="3477" height="16107"/>
   </mask>
    <clipPath id="id9">
     <path d="M-1003 11349l8278 -1329 0 10849 -8278 1329 0 -10849z"/>
    </clipPath>
   <mask id="id10">
  <linearGradient id="id11" gradientUnits="userSpaceOnUse" x1="-4446.84" y1="20888.9" x2="-4658.5" y2="20888.9">
   <stop offset="0" style="stop-opacity:1; stop-color:white"/>
   <stop offset="1" style="stop-opacity:0; stop-color:white"/>
  </linearGradient>
    <rect style="fill:url(#id11)" x="-48" y="12130" width="6229" height="8981"/>
   </mask>
    <clipPath id="id12">
     <path d="M6896 11269l11444 -1838 0 11124 -11444 1838 0 -11124z"/>
    </clipPath>
   <mask id="id13">
  <linearGradient id="id14" gradientUnits="userSpaceOnUse" x1="-4446.84" y1="20888.9" x2="-4658.5" y2="20888.9">
   <stop offset="0" style="stop-opacity:1; stop-color:white"/>
   <stop offset="1" style="stop-opacity:0; stop-color:white"/>
  </linearGradient>
    <rect style="fill:url(#id14)" x="8208" y="12342" width="8628" height="8557"/>
   </mask>
    <clipPath id="id15">
     <path d="M17791 17841l5075 -815 0 3695 -5075 815 0 -3695z"/>
    </clipPath>
   <mask id="id16">
  <linearGradient id="id17" gradientUnits="userSpaceOnUse" x1="-4446.84" y1="20888.9" x2="-4658.5" y2="20888.9">
   <stop offset="0" style="stop-opacity:1; stop-color:white"/>
   <stop offset="1" style="stop-opacity:0; stop-color:white"/>
  </linearGradient>
    <rect style="fill:url(#id17)" x="18227" y="18198" width="4112" height="2842"/>
   </mask>
    <clipPath id="id18">
     <path d="M19750 8457l4528 -727 0 12966 -4528 727 0 -12966z"/>
    </clipPath>
   <mask id="id19">
  <linearGradient id="id20" gradientUnits="userSpaceOnUse" x1="-4446.84" y1="20888.9" x2="-4658.5" y2="20888.9">
   <stop offset="0" style="stop-opacity:1; stop-color:white"/>
   <stop offset="1" style="stop-opacity:0; stop-color:white"/>
  </linearGradient>
    <rect style="fill:url(#id20)" x="20273" y="8884" width="3407" height="11944"/>
   </mask>
    <clipPath id="id21">
     <path d="M21482 4012l6028 -968 0 17891 -6028 968 0 -17891z"/>
    </clipPath>
   <mask id="id22">
  <linearGradient id="id23" gradientUnits="userSpaceOnUse" x1="-4446.84" y1="20888.9" x2="-4658.5" y2="20888.9">
   <stop offset="0" style="stop-opacity:1; stop-color:white"/>
   <stop offset="1" style="stop-opacity:0; stop-color:white"/>
  </linearGradient>
    <rect style="fill:url(#id23)" x="22178" y="4581" width="4536" height="16530"/>
   </mask>
    <clipPath id="id24">
     <path d="M25108 10089l5183 -833 0 11774 -5183 832 0 -11773z"/>
    </clipPath>
   <mask id="id25">
  <linearGradient id="id26" gradientUnits="userSpaceOnUse" x1="-4446.84" y1="20888.9" x2="-4658.5" y2="20888.9">
   <stop offset="0" style="stop-opacity:1; stop-color:white"/>
   <stop offset="1" style="stop-opacity:0; stop-color:white"/>
  </linearGradient>
    <rect style="fill:url(#id26)" x="25706" y="10578" width="3901" height="10603"/>
   </mask>
    <clipPath id="id27">
     <path d="M2313 13792l7059 -1133 0 8175 -7059 1134 0 -8176z"/>
    </clipPath>
   <mask id="id28">
  <linearGradient id="id29" gradientUnits="userSpaceOnUse" x1="-4446.84" y1="20888.9" x2="-4658.5" y2="20888.9">
   <stop offset="0" style="stop-opacity:1; stop-color:white"/>
   <stop offset="1" style="stop-opacity:0; stop-color:white"/>
  </linearGradient>
    <rect style="fill:url(#id29)" x="3128" y="14458" width="5312" height="6582"/>
   </mask>
    <clipPath id="id30">
     <path d="M-3393 9247l3965 -637 0 12345 -3965 637 0 -12345z"/>
    </clipPath>
   <mask id="id31">
  <linearGradient id="id32" gradientUnits="userSpaceOnUse" x1="-14037.8" y1="21061.2" x2="-14249.5" y2="21061.1">
   <stop offset="0" style="stop-opacity:1; stop-color:white"/>
   <stop offset="1" style="stop-opacity:0; stop-color:white"/>
  </linearGradient>
    <rect style="fill:url(#id32)" x="-2935" y="9621" width="2983" height="11450"/>
   </mask>
   <mask id="id33">
  <linearGradient id="id34" gradientUnits="userSpaceOnUse" x1="-14037.8" y1="21061.2" x2="-14249.5" y2="21061.1">
   <stop offset="0" style="stop-opacity:1; stop-color:white"/>
   <stop offset="1" style="stop-opacity:0; stop-color:white"/>
  </linearGradient>
    <rect style="fill:url(#id34)" x="-8509" y="4682" width="3477" height="16107"/>
   </mask>
    <clipPath id="id35">
     <path d="M-7278 13965l7059 -1134 0 8175 -7059 1134 0 -8175z"/>
    </clipPath>
   <mask id="id36">
  <linearGradient id="id37" gradientUnits="userSpaceOnUse" x1="-14037.8" y1="21061.2" x2="-14249.5" y2="21061.1">
   <stop offset="0" style="stop-opacity:1; stop-color:white"/>
   <stop offset="1" style="stop-opacity:0; stop-color:white"/>
  </linearGradient>
    <rect style="fill:url(#id37)" x="-6463" y="14631" width="5312" height="6582"/>
   </mask>
    <clipPath id="id38">
     <path d="M-15060 14796l6388 -1026 0 7399 -6388 1026 0 -7399z"/>
    </clipPath>
   <mask id="id39">
  <linearGradient id="id40" gradientUnits="userSpaceOnUse" x1="-21175.4" y1="21218" x2="-21366.9" y2="21217.9">
   <stop offset="0" style="stop-opacity:1; stop-color:white"/>
   <stop offset="1" style="stop-opacity:0; stop-color:white"/>
  </linearGradient>
    <rect style="fill:url(#id40)" x="-14323" y="15399" width="4808" height="5957"/>
   </mask>
    <clipPath id="id41">
     <path d="M-10594 11521l8278 -1329 0 10849 -8278 1330 0 -10850z"/>
    </clipPath>
   <mask id="id42">
  <linearGradient id="id43" gradientUnits="userSpaceOnUse" x1="-14037.8" y1="21061.2" x2="-14249.5" y2="21061.1">
   <stop offset="0" style="stop-opacity:1; stop-color:white"/>
   <stop offset="1" style="stop-opacity:0; stop-color:white"/>
  </linearGradient>
    <rect style="fill:url(#id43)" x="-9639" y="12302" width="6229" height="8981"/>
   </mask>
   <mask id="id44">
  <linearGradient id="id45" gradientUnits="userSpaceOnUse" x1="17618.7" y1="21157.8" x2="17407.1" y2="21157.8">
   <stop offset="0" style="stop-opacity:1; stop-color:white"/>
   <stop offset="1" style="stop-opacity:0; stop-color:white"/>
  </linearGradient>
    <rect style="fill:url(#id45)" x="34930" y="15151" width="7922" height="6088"/>
   </mask>
   <mask id="id46">
  <linearGradient id="id47" gradientUnits="userSpaceOnUse" x1="17618.7" y1="21157.8" x2="17407.1" y2="21157.8">
   <stop offset="0" style="stop-opacity:1; stop-color:white"/>
   <stop offset="1" style="stop-opacity:0; stop-color:white"/>
  </linearGradient>
    <rect style="fill:url(#id47)" x="22018" y="12399" width="6229" height="8981"/>
   </mask>
   <mask id="id48">
  <linearGradient id="id49" gradientUnits="userSpaceOnUse" x1="17618.7" y1="21157.8" x2="17407.1" y2="21157.8">
   <stop offset="0" style="stop-opacity:1; stop-color:white"/>
   <stop offset="1" style="stop-opacity:0; stop-color:white"/>
  </linearGradient>
    <rect style="fill:url(#id49)" x="30273" y="12611" width="8628" height="8557"/>
   </mask>
    <clipPath id="id50">
     <path d="M24379 14061l7059 -1133 0 8175 -7059 1133 0 -8175z"/>
    </clipPath>
   <mask id="id51">
  <linearGradient id="id52" gradientUnits="userSpaceOnUse" x1="17618.7" y1="21157.8" x2="17407.1" y2="21157.8">
   <stop offset="0" style="stop-opacity:1; stop-color:white"/>
   <stop offset="1" style="stop-opacity:0; stop-color:white"/>
  </linearGradient>
    <rect style="fill:url(#id52)" x="25193" y="14727" width="5312" height="6582"/>
   </mask>
 </defs>
 <g id="Camada_x0020_1">
  <metadata id="CorelCorpID_0Corel-Layer"/>
  <rect class="fil0 str0" x="-14496" y="-66" width="57362" height="21237"/>
  <g id="_2897957953440">
   <g style="clip-path:url(#id0)">
    <image x="11931" y="12518" width="9966" height="9515" xlink:href="jogo1_b_Images\jogo1_b_ImgID1.png"/>
   </g>
  </g>
  <polygon class="fil1 str0" style="mask:url(#id1)" points="12875,14892 20777,14892 20777,20959 12875,20959 "/>
  <g id="_2897978959952">
   <g style="clip-path:url(#id3)">
    <image x="6198" y="8438" width="3965" height="12982" xlink:href="jogo1_b_Images\jogo1_b_ImgID2.png"/>
   </g>
  </g>
  <polygon class="fil2 str0" style="mask:url(#id4)" points="6666,9459 9629,9459 9629,20889 6666,20889 "/>
  <g id="_2897978949040">
   <g style="clip-path:url(#id6)">
    <image x="549" y="3332" width="4621" height="17892" xlink:href="jogo1_b_Images\jogo1_b_ImgID3.png"/>
   </g>
  </g>
  <polygon class="fil3 str0" style="mask:url(#id7)" points="1092,4520 4549,4520 4549,20607 1092,20607 "/>
  <g id="_2897978946192">
   <g style="clip-path:url(#id9)">
    <image x="-1003" y="10020" width="8278" height="12179" xlink:href="jogo1_b_Images\jogo1_b_ImgID4.png"/>
   </g>
  </g>
  <polygon class="fil3 str0" style="mask:url(#id10)" points="-38,12140 6171,12140 6171,21101 -38,21101 "/>
  <g id="_2897978931920">
   <g style="clip-path:url(#id12)">
    <image x="6896" y="9431" width="11444" height="12962" xlink:href="jogo1_b_Images\jogo1_b_ImgID5.png"/>
   </g>
  </g>
  <polygon class="fil4 str0" style="mask:url(#id13)" points="8218,12352 16826,12352 16826,20889 8218,20889 "/>
  <g id="_2897978924560">
   <g style="clip-path:url(#id15)">
    <image x="17791" y="17026" width="5075" height="4510" xlink:href="jogo1_b_Images\jogo1_b_ImgID6.png"/>
   </g>
  </g>
  <polygon class="fil5 str0" style="mask:url(#id16)" points="18237,18208 22329,18208 22329,21030 18237,21030 "/>
  <g id="_2897978924432">
   <g style="clip-path:url(#id18)">
    <image x="19750" y="7730" width="4527" height="13693" xlink:href="jogo1_b_Images\jogo1_b_ImgID7.png"/>
   </g>
  </g>
  <polygon class="fil6 str0" style="mask:url(#id19)" points="20283,8894 23670,8894 23670,20818 20283,20818 "/>
  <g id="_2897978923088">
   <g style="clip-path:url(#id21)">
    <image x="21482" y="3044" width="6028" height="18859" xlink:href="jogo1_b_Images\jogo1_b_ImgID8.png"/>
   </g>
  </g>
  <polygon class="fil4 str0" style="mask:url(#id22)" points="22188,4591 26703,4591 26703,21101 22188,21101 "/>
  <g id="_2897978921584">
   <g style="clip-path:url(#id24)">
    <image x="25108" y="9256" width="5184" height="12606" xlink:href="jogo1_b_Images\jogo1_b_ImgID9.png"/>
   </g>
  </g>
  <polygon class="fil3 str0" style="mask:url(#id25)" points="25716,10588 29596,10588 29596,21171 25716,21171 "/>
  <g id="_2897978919856">
   <g style="clip-path:url(#id27)">
    <image x="2313" y="12659" width="7059" height="9309" xlink:href="jogo1_b_Images\jogo1_b_ImgID10.png"/>
   </g>
  </g>
  <polygon class="fil7 str0" style="mask:url(#id28)" points="3138,14468 8430,14468 8430,21030 3138,21030 "/>
  <line class="fil5 str1" x1="5920" y1="2754" x2="4015" y2= "1961" />
  <line class="fil5 str1" x1="5920" y1="2754" x2="4015" y2= "2596" />
  <polyline class="fil5 str1" points="4015,2596 3309,2596 3927,3001 5920,2754 "/>
  <line class="fil5 str1" x1="4015" y1="1961" x2="3309" y2= "2596" />
  <line class="fil5 str1" x1="5692" y1="2735" x2="3662" y2= "2278" />
  <line class="fil5 str1" x1="14436" y1="5261" x2="12531" y2= "4467" />
  <line class="fil5 str1" x1="14436" y1="5261" x2="12531" y2= "5102" />
  <polyline class="fil5 str1" points="12531,5102 11825,5102 12442,5508 14436,5261 "/>
  <line class="fil5 str1" x1="12531" y1="4467" x2="11825" y2= "5102" />
  <line class="fil5 str1" x1="14208" y1="5242" x2="12178" y2= "4785" />
  <line class="fil5 str1" x1="5920" y1="2754" x2="4015" y2= "1961" />
  <line class="fil5 str1" x1="5920" y1="2754" x2="4015" y2= "2596" />
  <polyline class="fil5 str1" points="4015,2596 3309,2596 3927,3001 5920,2754 "/>
  <line class="fil5 str1" x1="4015" y1="1961" x2="3309" y2= "2596" />
  <line class="fil5 str1" x1="5692" y1="2735" x2="3662" y2= "2278" />
  <line class="fil5 str0" x1="6719" y1="2650" x2="7847" y2= "2650" />
  <line class="fil5 str2" x1="16486" y1="5190" x2="18497" y2= "5190" />
  <line class="fil5 str2" x1="11750" y1="2756" x2="13761" y2= "2756" />
  <line class="fil5 str2" x1="9752" y1="1542" x2="10758" y2= "1542" />
  <line class="fil5 str1" x1="9094" y1="1464" x2="7189" y2= "670" />
  <line class="fil5 str1" x1="9094" y1="1464" x2="7189" y2= "1305" />
  <polyline class="fil5 str1" points="7189,1305 6484,1305 7101,1711 9094,1464 "/>
  <line class="fil5 str1" x1="7189" y1="670" x2="6484" y2= "1305" />
  <line class="fil5 str1" x1="8867" y1="1445" x2="6837" y2= "987" />
  <line class="fil5 str1" x1="9094" y1="1464" x2="7189" y2= "670" />
  <line class="fil5 str1" x1="9094" y1="1464" x2="7189" y2= "1305" />
  <polyline class="fil5 str1" points="7189,1305 6484,1305 7101,1711 9094,1464 "/>
  <line class="fil5 str1" x1="7189" y1="670" x2="6484" y2= "1305" />
  <line class="fil5 str1" x1="8867" y1="1445" x2="6837" y2= "987" />
  <line class="fil5 str3" x1="9223" y1="1407" x2="9541" y2= "1116" />
  <line class="fil5 str3" x1="9505" y1="1843" x2="9188" y2= "1552" />
  <line class="fil5 str4" x1="9267" y1="1491" x2="9558" y2= "1491" />
  <line class="fil5 str3" x1="6079" y1="2690" x2="6397" y2= "2399" />
  <line class="fil5 str3" x1="6361" y1="3127" x2="6044" y2= "2836" />
  <line class="fil5 str4" x1="6123" y1="2774" x2="6414" y2= "2774" />
  <line class="fil5 str3" x1="14559" y1="5213" x2="14877" y2= "4921" />
  <line class="fil5 str3" x1="14841" y1="5649" x2="14524" y2= "5358" />
  <line class="fil5 str4" x1="14603" y1="5296" x2="14894" y2= "5296" />
  <line class="fil5 str5" x1="22669" y1="1513" x2="24574" y2= "719" />
  <line class="fil5 str5" x1="22669" y1="1513" x2="24574" y2= "1354" />
  <polyline class="fil5 str5" points="24574,1354 25279,1354 24662,1760 22669,1513 "/>
  <line class="fil5 str5" x1="24574" y1="719" x2="25279" y2= "1354" />
  <line class="fil5 str5" x1="22896" y1="1494" x2="24926" y2= "1037" />
  <line class="fil5 str5" x1="22669" y1="1513" x2="24574" y2= "719" />
  <line class="fil5 str5" x1="22669" y1="1513" x2="24574" y2= "1354" />
  <polyline class="fil5 str5" points="24574,1354 25279,1354 24662,1760 22669,1513 "/>
  <line class="fil5 str5" x1="24574" y1="719" x2="25279" y2= "1354" />
  <line class="fil5 str5" x1="22896" y1="1494" x2="24926" y2= "1037" />
  <line class="fil5 str0" x1="18648" y1="10666" x2="17519" y2= "10666" />
  <line class="fil5 str6" x1="15614" y1="9558" x2="14609" y2= "9558" />
  <line class="fil5 str7" x1="16272" y1="9480" x2="18177" y2= "8686" />
  <line class="fil5 str7" x1="16272" y1="9480" x2="18177" y2= "9321" />
  <polyline class="fil5 str7" points="18177,9321 18883,9321 18265,9726 16272,9480 "/>
  <line class="fil5 str7" x1="18177" y1="8686" x2="18883" y2= "9321" />
  <line class="fil5 str7" x1="16500" y1="9461" x2="18530" y2= "9003" />
  <line class="fil5 str7" x1="16272" y1="9480" x2="18177" y2= "8686" />
  <line class="fil5 str7" x1="16272" y1="9480" x2="18177" y2= "9321" />
  <polyline class="fil5 str7" points="18177,9321 18883,9321 18265,9726 16272,9480 "/>
  <line class="fil5 str7" x1="18177" y1="8686" x2="18883" y2= "9321" />
  <line class="fil5 str7" x1="16500" y1="9461" x2="18530" y2= "9003" />
  <line class="fil5 str6" x1="16143" y1="9423" x2="15826" y2= "9132" />
  <line class="fil5 str6" x1="15861" y1="9859" x2="16178" y2= "9568" />
  <line class="fil5 str6" x1="16099" y1="9506" x2="15808" y2= "9506" />
  <line class="fil5 str3" x1="22509" y1="1449" x2="22192" y2= "1157" />
  <line class="fil5 str3" x1="22227" y1="1885" x2="22545" y2= "1594" />
  <line class="fil5 str4" x1="22465" y1="1532" x2="22174" y2= "1532" />
  <path class="fil8 str8" d="M6753 19764l0 -1489 198 0 0 1489 -198 0zm522 0l0 -1080 164 0 0 154c79,-118 193,-176 343,-176 65,0 124,11 179,35 54,23 95,54 122,91 27,38 46,83 57,135 7,34 10,93 10,178l0 663 -183 0 0 -656c0,-75 -7,-130 -21,-167 -14,-37 -40,-66 -76,-89 -36,-21 -78,-32 -127,-32 -77,0 -144,24 -201,74 -56,49 -84,143 -84,281l0 589 -183 0zm1451 0l-407 -1080 196 0 230 647c25,69 49,142 70,217 16,-57 39,-125 68,-205l240 -659 188 0 -409 1080 -176 0zm745 -1281l0 -208 183 0 0 208 -183 0zm0 1281l0 -1080 183 0 0 1080 -183 0zm389 -323l181 -29c10,73 38,128 85,167 46,38 111,58 195,58 84,0 146,-17 187,-52 41,-34 61,-74 61,-120 0,-41 -18,-74 -55,-97 -25,-16 -88,-37 -187,-62 -134,-34 -226,-63 -278,-88 -52,-24 -91,-58 -118,-102 -26,-43 -40,-92 -40,-144 0,-48 11,-93 33,-134 22,-41 52,-75 90,-102 28,-20 67,-38 116,-53 49,-14 101,-21 158,-21 84,0 158,12 222,36 64,25 111,58 142,99 30,42 51,98 63,168l-179 25c-8,-56 -32,-100 -71,-132 -38,-31 -93,-47 -164,-47 -84,0 -144,14 -179,42 -36,28 -54,60 -54,97 0,24 7,45 22,64 15,20 38,36 70,49 18,7 72,22 161,47 129,34 219,62 270,84 52,22 92,54 121,96 30,42 44,94 44,156 0,61 -18,118 -53,172 -36,53 -87,95 -154,124 -67,30 -143,44 -228,44 -140,0 -247,-29 -320,-87 -74,-58 -121,-144 -141,-258zm1112 -958l0 -208 183 0 0 208 -183 0zm0 1281l0 -1080 183 0 0 1080 -183 0zm631 0l-171 0 0 -1489 183 0 0 531c77,-96 176,-144 296,-144 66,0 129,13 188,39 60,27 108,65 147,113 38,49 68,107 89,175 22,68 33,141 33,219 0,184 -46,327 -137,427 -91,101 -201,151 -329,151 -127,0 -227,-53 -299,-158l0 136zm-2 -548c0,129 17,222 52,280 58,94 136,141 234,141 80,0 149,-35 206,-104 59,-70 88,-173 88,-310 0,-141 -28,-244 -84,-311 -56,-67 -123,-101 -202,-101 -80,0 -149,35 -207,104 -58,70 -87,170 -87,301zm986 548l0 -1489 183 0 0 1489 -183 0zm1202 -350l189 25c-30,110 -85,196 -165,256 -80,61 -183,91 -308,91 -157,0 -282,-48 -374,-145 -92,-97 -139,-233 -139,-408 0,-181 47,-322 140,-421 93,-101 214,-150 363,-150 144,0 261,48 352,146 91,99 137,236 137,414 0,11 0,27 -1,49l-803 0c6,118 40,209 100,271 60,63 135,95 225,95 67,0 124,-18 171,-53 48,-36 85,-92 113,-170zm-599 -293l601 0c-8,-91 -31,-159 -69,-204 -58,-70 -134,-106 -226,-106 -84,0 -154,28 -211,84 -57,57 -89,132 -95,226zm1620 643l0 -1489 513 0c115,0 204,7 265,21 85,20 158,55 218,107 79,66 137,151 176,254 39,103 59,221 59,354 0,113 -14,213 -40,301 -26,87 -60,159 -101,217 -42,57 -87,102 -136,134 -49,33 -108,58 -178,75 -69,17 -149,26 -239,26l-537 0zm197 -175l318 0c98,0 175,-9 230,-27 56,-19 101,-44 134,-78 46,-47 83,-110 109,-189 26,-79 39,-174 39,-287 0,-156 -26,-276 -77,-360 -51,-83 -113,-140 -186,-168 -52,-21 -137,-31 -255,-31l-312 0 0 1140zm2017 -175l190 25c-30,110 -85,196 -165,256 -81,61 -183,91 -308,91 -158,0 -282,-48 -375,-145 -92,-97 -138,-233 -138,-408 0,-181 47,-322 140,-421 93,-101 214,-150 363,-150 143,0 261,48 352,146 91,99 137,236 137,414 0,11 0,27 -1,49l-804 0c7,118 40,209 101,271 60,63 135,95 225,95 67,0 124,-18 171,-53 47,-36 85,-92 112,-170zm-598 -293l601 0c-8,-91 -32,-159 -69,-204 -58,-70 -134,-106 -226,-106 -84,0 -155,28 -212,84 -57,57 -88,132 -94,226zm1062 643l0 -938 -162 0 0 -142 162 0 0 -114c0,-72 7,-126 20,-161 17,-47 48,-86 92,-115 44,-30 106,-44 186,-44 51,0 108,6 171,18l-28 160c-38,-6 -74,-10 -108,-10 -55,0 -94,12 -117,36 -23,23 -35,67 -35,132l0 98 210 0 0 142 -208 0 0 938 -183 0zm1271 -350l189 25c-30,110 -85,196 -165,256 -81,61 -183,91 -308,91 -158,0 -282,-48 -375,-145 -92,-97 -138,-233 -138,-408 0,-181 47,-322 140,-421 93,-101 214,-150 363,-150 144,0 261,48 352,146 91,99 137,236 137,414 0,11 0,27 -1,49l-804 0c7,118 41,209 101,271 60,63 135,95 225,95 67,0 124,-18 171,-53 47,-36 85,-92 113,-170zm-599 -293l601 0c-8,-91 -32,-159 -69,-204 -58,-70 -134,-106 -226,-106 -84,0 -154,28 -212,84 -56,57 -88,132 -94,226zm1019 643l0 -1080 164 0 0 154c79,-118 194,-176 343,-176 65,0 125,11 179,35 55,23 95,54 122,91 27,38 47,83 57,135 7,34 10,93 10,178l0 663 -183 0 0 -656c0,-75 -7,-130 -21,-167 -14,-37 -39,-66 -75,-89 -36,-21 -79,-32 -128,-32 -77,0 -144,24 -201,74 -56,49 -84,143 -84,281l0 589 -183 0zm1084 -323l180 -29c11,73 39,128 85,167 47,38 112,58 195,58 84,0 147,-17 188,-52 40,-34 61,-74 61,-120 0,-41 -19,-74 -55,-97 -26,-16 -88,-37 -187,-62 -134,-34 -227,-63 -279,-88 -51,-24 -90,-58 -117,-102 -27,-43 -40,-92 -40,-144 0,-48 11,-93 33,-134 22,-41 52,-75 89,-102 29,-20 68,-38 117,-53 49,-14 101,-21 157,-21 85,0 159,12 223,36 64,25 111,58 141,99 31,42 52,98 63,168l-179 25c-8,-56 -31,-100 -70,-132 -39,-31 -94,-47 -165,-47 -83,0 -143,14 -179,42 -35,28 -53,60 -53,97 0,24 7,45 22,64 15,20 38,36 70,49 18,7 71,22 161,47 129,34 219,62 270,84 51,22 92,54 121,96 29,42 44,94 44,156 0,61 -18,118 -54,172 -35,53 -87,95 -153,124 -68,30 -144,44 -228,44 -140,0 -247,-29 -321,-87 -73,-58 -120,-144 -140,-258zm1848 -27l189 25c-29,110 -84,196 -165,256 -80,61 -183,91 -308,91 -157,0 -282,-48 -374,-145 -92,-97 -138,-233 -138,-408 0,-181 46,-322 139,-421 94,-101 215,-150 363,-150 144,0 262,48 353,146 91,99 137,236 137,414 0,11 -1,27 -1,49l-804 0c7,118 40,209 100,271 60,63 136,95 225,95 67,0 124,-18 171,-53 48,-36 85,-92 113,-170zm-599 -293l601 0c-8,-91 -31,-159 -69,-204 -58,-70 -133,-106 -226,-106 -84,0 -154,28 -211,84 -57,57 -89,132 -95,226z"/>
  <g id="_2897978969488">
   <g style="clip-path:url(#id30)">
    <image x="-3393" y="8610" width="3965" height="12982" xlink:href="jogo1_b_Images\jogo1_b_ImgID11.png"/>
   </g>
  </g>
  <polygon class="fil2 str0" style="mask:url(#id31)" points="-2925,9631 38,9631 38,21061 -2925,21061 "/>
  <polygon class="fil3 str0" style="mask:url(#id33)" points="-8499,4692 -5042,4692 -5042,20779 -8499,20779 "/>
  <g id="_2897978966544">
   <g style="clip-path:url(#id35)">
    <image x="-7278" y="12831" width="7059" height="9309" xlink:href="jogo1_b_Images\jogo1_b_ImgID12.png"/>
   </g>
  </g>
  <polygon class="fil7 str0" style="mask:url(#id36)" points="-6453,14641 -1161,14641 -1161,21202 -6453,21202 "/>
  <g id="_2897978967216">
   <g style="clip-path:url(#id38)">
    <image x="-15060" y="13770" width="6389" height="8425" xlink:href="jogo1_b_Images\jogo1_b_ImgID13.png"/>
   </g>
  </g>
  <polygon class="fil7 str0" style="mask:url(#id39)" points="-14313,15409 -9526,15409 -9526,21346 -14313,21346 "/>
  <g id="_2897978965776">
   <g style="clip-path:url(#id41)">
    <image x="-10594" y="10192" width="8278" height="12179" xlink:href="jogo1_b_Images\jogo1_b_ImgID14.png"/>
   </g>
  </g>
  <polygon class="fil3 str0" style="mask:url(#id42)" points="-9629,12312 -3420,12312 -3420,21273 -9629,21273 "/>
  <polygon class="fil1 str0" style="mask:url(#id44)" points="34940,15161 42842,15161 42842,21228 34940,21228 "/>
  <polygon class="fil3 str0" style="mask:url(#id46)" points="22028,12409 28237,12409 28237,21369 22028,21369 "/>
  <polygon class="fil4 str0" style="mask:url(#id48)" points="30283,12621 38891,12621 38891,21158 30283,21158 "/>
  <g id="_2897978963792">
   <g style="clip-path:url(#id50)">
    <image x="24379" y="12928" width="7059" height="9309" xlink:href="jogo1_b_Images\jogo1_b_ImgID15.png"/>
   </g>
  </g>
  <polygon class="fil7 str0" style="mask:url(#id51)" points="25203,14737 30495,14737 30495,21299 25203,21299 "/>
 </g>
</svg>
