<?xml version="1.0" encoding="UTF-8"?>
<!DOCTYPE svg PUBLIC "-//W3C//DTD SVG 1.1//EN" "http://www.w3.org/Graphics/SVG/1.1/DTD/svg11.dtd">
<!-- Creator: CorelDRAW X8 -->
<svg xmlns="http://www.w3.org/2000/svg" xml:space="preserve" width="210mm" height="297mm" version="1.1" style="shape-rendering:geometricPrecision; text-rendering:geometricPrecision; image-rendering:optimizeQuality; fill-rule:evenodd; clip-rule:evenodd"
viewBox="0 0 21000 29700"
 xmlns:xlink="http://www.w3.org/1999/xlink">
 <defs>
  <style type="text/css">
   <![CDATA[
    .str0 {stroke:#00C9BC;stroke-width:100}
    .fil0 {fill:none}
    .fil3 {fill:#00C9BC;fill-rule:nonzero}
    .fil2 {fill:url(#id0)}
    .fil1 {fill:url(#id1)}
   ]]>
  </style>
  <radialGradient id="id0" gradientUnits="userSpaceOnUse" gradientTransform="matrix(0.999998 -0 -0 0.999998 0 0)" cx="13586.4" cy="14267.1" r="1296.46" fx="13586.4" fy="14267.1">
   <stop offset="0" style="stop-opacity:1; stop-color:#FEFEFE"/>
   <stop offset="1" style="stop-opacity:1; stop-color:#00C9BC"/>
  </radialGradient>
  <radialGradient id="id1" gradientUnits="userSpaceOnUse" gradientTransform="matrix(1 -0 -0 0.999997 0 0)" xlink:href="#id0" cx="6190.4" cy="14349.4" r="1296.46" fx="6190.4" fy="14349.4">
  </radialGradient>
 </defs>
 <g id="Camada_x0020_1">
  <metadata id="CorelCorpID_0Corel-Layer"/>
  <path class="fil0 str0" d="M15981 11772l-12478 0c-1099,853 -1670,2220 -1504,3601 166,1381 1044,2574 2314,3143"/>
  <path class="fil0 str0" d="M3806 11772l12478 0c1099,853 1670,2220 1504,3601 -166,1381 -1044,2574 -2314,3143"/>
  <circle class="fil1 str0" cx="6190" cy="14349" r="1652"/>
  <circle class="fil2 str0" cx="13586" cy="14267" r="1798"/>
  <path class="fil3" d="M8075 16812l0 -1933 294 0 0 274c141,-210 346,-315 614,-315 116,0 223,21 321,63 97,41 170,97 219,164 48,68 82,149 101,242 12,61 18,167 18,318l0 1187 -327 0 0 -1174c0,-134 -13,-234 -38,-300 -26,-65 -71,-118 -136,-158 -64,-39 -140,-59 -227,-59 -139,0 -259,44 -360,133 -101,88 -152,256 -152,503l0 1055 -327 0zm3389 -626l339 45c-53,197 -151,350 -295,459 -145,108 -328,163 -552,163 -282,0 -506,-87 -671,-261 -165,-173 -247,-417 -247,-730 0,-324 83,-576 250,-755 167,-180 383,-269 650,-269 257,0 468,88 631,263 163,176 245,423 245,741 0,20 -1,49 -2,87l-1439 0c12,212 72,375 180,487 107,112 242,169 403,169 119,0 222,-32 306,-95 85,-64 152,-165 202,-304zm-1072 -525l1076 0c-15,-162 -56,-284 -124,-366 -103,-125 -239,-189 -404,-189 -151,0 -277,50 -379,151 -102,101 -158,235 -169,404z"/>
  <path class="fil0 str0" d="M4313 18516c3756,1709 7476,1709 11161,0"/>
 </g>
</svg>
